HIERARCHY
ROOT root
{
	OFFSET	0	13.1	24.9
	CHANNELS 6  Xposition Yposition Zposition Xrotation Yrotation Zrotation
	JOINT spine_1
	{
		OFFSET	0	9.99999	0
		CHANNELS 3  Xrotation Yrotation Zrotation
		JOINT spine_2
		{
			OFFSET	0	112	-10
			CHANNELS 3  Xrotation Yrotation Zrotation
			JOINT spine_3
			{
				OFFSET	0	206.5	19.3
				CHANNELS 3  Xrotation Yrotation Zrotation
				JOINT spine_4
				{
					OFFSET	0	110.4	14.6
					CHANNELS 3  Xrotation Yrotation Zrotation
					JOINT neck_1
					{
						OFFSET	0	71.8	-50.3
						CHANNELS 3  Xrotation Yrotation Zrotation
						JOINT neck_2
						{
							OFFSET	0	86.2	-25.8
							CHANNELS 3  Xrotation Yrotation Zrotation
							JOINT head_ee
							{
								OFFSET	0	179.8	-8.7
								CHANNELS 3  Xrotation Yrotation Zrotation
								End Site
								{
									OFFSET	1	0	0
								}
							}
						}
					}
					JOINT left_clavicle
					{
						OFFSET	-43.2	22.4	-70.8
						CHANNELS 3  Xrotation Yrotation Zrotation
						JOINT left_shoulder
						{
							OFFSET	-93.9	-5.79999	48.7
							CHANNELS 3  Xrotation Yrotation Zrotation
							JOINT left_elbow
							{
								OFFSET	-291.4	-30.8	15.2
								CHANNELS 3  Xrotation Yrotation Zrotation
								JOINT left_lowarm_twist
								{
									OFFSET	-110.7	-3.89999	13.6
									CHANNELS 3  Xrotation Yrotation Zrotation
									JOINT left_hand
									{
										OFFSET	-110.7	-3.89999	13.6
										CHANNELS 3  Xrotation Yrotation Zrotation
										JOINT left_ee
										{
											OFFSET	-80.8	-5.10001	12.1
											CHANNELS 3  Xrotation Yrotation Zrotation
											End Site
											{
												OFFSET	1	0	0
											}
										}
									}
								}
							}
						}
					}
					JOINT right_clavicle
					{
						OFFSET	43.2	22.4	-70.8
						CHANNELS 3  Xrotation Yrotation Zrotation
						JOINT right_shoulder
						{
							OFFSET	93.9	-5.79999	48.7
							CHANNELS 3  Xrotation Yrotation Zrotation
							JOINT right_elbow
							{
								OFFSET	291.4	-30.8	15.2
								CHANNELS 3  Xrotation Yrotation Zrotation
								JOINT right_lowarm_twist
								{
									OFFSET	110.7	-3.89999	13.6
									CHANNELS 3  Xrotation Yrotation Zrotation
									JOINT right_hand
									{
										OFFSET	110.7	-3.89999	13.6
										CHANNELS 3  Xrotation Yrotation Zrotation
										JOINT right_ee
										{
											OFFSET	80.8	-5.10001	12.1
											CHANNELS 3  Xrotation Yrotation Zrotation
											End Site
											{
												OFFSET	1	0	0
											}
										}
									}
								}
							}
						}
					}
				}
			}
		}
	}
	JOINT left_hip
	{
		OFFSET	-82.8	-127.5	0.300001
		CHANNELS 3  Xrotation Yrotation Zrotation
		JOINT left_knee
		{
			OFFSET	-28.2	-396.7	2.2
			CHANNELS 3  Xrotation Yrotation Zrotation
			JOINT left_ankle
			{
				OFFSET	-11.7	-411.3	35.4
				CHANNELS 3  Xrotation Yrotation Zrotation
				JOINT left_toes
				{
					OFFSET	0	-60	-88.6
					CHANNELS 3  Xrotation Yrotation Zrotation
					JOINT left_foot_ee
					{
						OFFSET	-22.5	-16.5	-42.2
						CHANNELS 3  Xrotation Yrotation Zrotation
						End Site
						{
							OFFSET	1	0	0
						}
					}
				}
			}
		}
	}
	JOINT right_hip
	{
		OFFSET	82.8	-127.5	0.300001
		CHANNELS 3  Xrotation Yrotation Zrotation
		JOINT right_knee
		{
			OFFSET	28.2	-396.7	2.2
			CHANNELS 3  Xrotation Yrotation Zrotation
			JOINT right_ankle
			{
				OFFSET	11.7	-411.3	35.4
				CHANNELS 3  Xrotation Yrotation Zrotation
				JOINT right_toes
				{
					OFFSET	0	-60	-88.6
					CHANNELS 3  Xrotation Yrotation Zrotation
					JOINT right_foot_ee
					{
						OFFSET	22.5	-16.5	-42.2
						CHANNELS 3  Xrotation Yrotation Zrotation
						End Site
						{
							OFFSET	1	0	0
						}
					}
				}
			}
		}
	}
}
MOTION
Frames: 10
Frame Time: 0.02
2898.73648685 683.503 -1843.03374135 -12.1137243112 20.8769524648 -1.286432889 4.56107 0.248544 2.44747 4.5644 0.0923502 2.45831 4.56592 -0.232281 2.44906 4.55758 0.157297 2.45501 -9.2059 14.7739 6.11168 -9.24966 23.5819 9.50762 -0.0 0.0 -0.0 5.06457 23.5335 9.70061 -14.6281 -38.4503 47.1725 1.31453 -33.0697 0.390266 -1.3068 -0.0478732 0.160011 -1.4001 18.5852 -0.906983 -0.0 0.0 -0.0 6.00859 1.98176 -11.596 -11.0042 17.0204 -74.0759 0.500445 13.9235 -0.0611081 77.0389 3.50158 8.43412 -1.90757 -11.1739 7.53886 0.0 0.0 0.0 26.7369 -5.0203 8.78498 -20.2764 0.292251 3.08163 14.6263 22.3104 -2.11301 -17.8919 0.0 0.0 -0.0 0.0 -0.0 39.7077 27.191 0.146516 -57.519 1.93812 -8.24646 28.7022 -16.5674 3.80867 38.1474 -0.0 -0.0 0.0 0.0 0.0 
2874.23773749 685.269 -1847.55493136 -12.1497265948 20.3814577882 -1.67066711467 4.55385 0.259217 2.36595 4.55696 0.108184 2.37764 4.55916 -0.206216 2.37116 4.55136 0.170744 2.37397 -8.43368 14.9059 6.40771 -8.42256 23.4594 9.67392 -0.0 0.0 -0.0 3.12557 23.017 6.9975 -8.36651 -38.5684 51.8408 1.37545 -34.267 0.424043 -3.40435 -0.132319 0.414477 -2.27318 19.5069 -5.70212 -0.0 0.0 -0.0 8.80808 2.48423 -17.2738 -16.5116 13.6496 -67.9641 0.515214 14.3177 -0.0647111 76.3929 3.4293 8.3935 -1.71697 -4.55001 9.43309 0.0 0.0 0.0 26.1997 -9.50633 10.7102 -21.1451 0.280271 3.21439 14.5623 20.233 -2.08578 -18.9824 0.0 0.0 -0.0 0.0 -0.0 42.7391 26.4937 -0.805157 -53.9566 1.58394 -7.8269 23.6149 -19.7233 3.2507 38.6715 -0.0 -0.0 0.0 0.0 0.0 
2872.89423495 685.269 -1845.2530736 -12.1841458073 20.8063118417 -1.57281415994 4.55385 0.259217 2.36595 4.55696 0.108184 2.37764 4.55916 -0.206216 2.37116 4.55136 0.170744 2.37397 -8.43368 14.9059 6.40771 -8.42256 23.4594 9.67392 -0.0 0.0 -0.0 3.12557 23.017 6.9975 -8.36651 -38.5684 51.8408 1.37545 -34.267 0.424043 -3.40435 -0.132319 0.414477 -2.27318 19.5069 -5.70212 -0.0 0.0 -0.0 8.80808 2.48423 -17.2738 -16.5116 13.6496 -67.9641 0.515214 14.3177 -0.0647111 76.3929 3.4293 8.3935 -1.71697 -4.55001 9.43309 0.0 0.0 0.0 26.1997 -9.50633 10.7102 -21.1451 0.280271 3.21439 14.5623 20.233 -2.08578 -18.9824 0.0 0.0 -0.0 0.0 -0.0 42.7391 26.4937 -0.805157 -53.9566 1.58394 -7.8269 23.6149 -19.7233 3.2507 38.6715 -0.0 -0.0 0.0 0.0 0.0 
2853.93281628 685.979 -1846.15721176 -12.8051510169 21.7240237784 -1.41806338099 4.56225 0.292371 2.42837 4.56552 0.137303 2.44204 4.56896 -0.185405 2.43886 4.56072 0.201977 2.43755 -7.34133 14.9464 5.54743 -7.29829 23.9061 8.63443 -0.0 0.0 -0.0 1.47269 23.6373 4.74242 -4.52617 -38.6264 55.5819 1.55423 -37.5908 0.528994 -10.2355 -0.47097 1.21919 -4.0306 19.9169 -16.1771 -0.0 0.0 -0.0 8.66774 5.20519 -17.0038 -17.5619 10.6321 -68.1077 0.53293 14.7887 -0.0691628 75.7605 3.35898 8.35295 -1.71121 -1.12731 10.9857 0.0 0.0 0.0 24.8443 -11.4006 12.3071 -18.7274 0.308611 2.84453 17.2189 22.7003 -2.46788 -19.8592 0.0 0.0 -0.0 0.0 -0.0 45.2848 24.5278 -1.45835 -50.577 1.2728 -7.40953 17.6927 -22.5005 2.52869 39.7976 -0.0 -0.0 0.0 0.0 0.0 
2807.97176866 683.756 -1859.0974129 -13.4119612253 24.4256762336 -0.0134982997999 4.50688 0.115868 1.91068 4.50891 -0.00592552 1.91418 4.50726 -0.259974 1.89646 4.50224 0.0427425 1.91371 -9.25431 16.0288 5.50222 -9.36041 26.3826 9.25014 -0.0 0.0 -0.0 0.839173 22.7928 3.8059 1.72464 -37.8546 59.4814 1.68774 -39.8943 0.612563 -28.8002 -1.84625 3.14593 -7.43307 22.2227 -37.4676 -0.0 0.0 -0.0 8.28482 5.94693 -16.1972 -20.1422 8.38529 -69.8283 0.422105 11.8105 -0.0436597 69.3592 2.67414 7.90002 -0.899132 10.9904 10.7975 0.0 0.0 0.0 22.7201 -13.7652 16.054 -11.7859 0.30308 1.78016 6.07789 29.0665 -0.936808 -24.6078 0.0 0.0 -0.0 0.0 -0.0 51.9676 21.9553 -4.54474 -49.0683 1.142 -7.21752 -0.45676 -28.7186 -0.07134 39.9773 -0.0 -0.0 0.0 0.0 0.0 
2790.1234437 681.025 -1859.08245994 -13.0342674414 25.9618716938 -0.133110638553 4.47445 0.0540055 1.884 4.47643 -0.0659657 1.88361 4.47286 -0.316569 1.858 4.46804 -0.0192137 1.88467 -9.04011 15.981 5.40775 -9.1321 26.3123 9.09789 -0.0 0.0 -0.0 0.284101 19.1639 2.66164 2.12851 -38.3717 59.7333 1.65579 -39.3565 0.592185 -31.283 -2.07536 3.36696 -7.97481 22.4125 -41.5942 -0.0 0.0 -0.0 7.98144 8.46286 -15.5161 -21.0812 6.31099 -71.5252 0.443667 12.3956 -0.0481805 69.7618 2.71569 7.93073 -0.929268 15.225 12.8017 0.0 0.0 0.0 21.6042 -16.8378 17.3731 -10.0367 0.281354 1.51265 3.34514 30.1277 -0.522961 -23.499 0.0 0.0 -0.0 0.0 -0.0 56.2226 23.1909 -6.96224 -50.4469 1.26132 -7.39311 -9.90913 -30.0416 -1.58605 38.4233 -0.0 -0.0 0.0 0.0 0.0 
2777.21768982 679.722 -1866.41951943 -13.8182102179 25.9866300764 0.756291085489 4.42437 0.13738 1.79201 4.42616 0.0230904 1.79711 4.42564 -0.218193 1.78397 4.4212 0.0662441 1.79604 -9.60923 16.7576 5.31429 -9.77699 27.9642 9.34703 -0.0 0.0 -0.0 1.30403 18.5875 4.13829 2.67098 -35.4241 58.5604 1.6386 -39.0636 0.581315 -37.8946 -2.73009 3.90538 -8.48532 23.4441 -44.6875 -0.0 0.0 -0.0 8.17973 9.51916 -15.9109 -20.0634 4.77196 -71.4688 0.394782 11.0655 -0.0382412 71.1322 2.85869 8.03307 -0.98696 17.1744 14.012 0.0 0.0 0.0 18.846 -13.5332 16.5655 -7.27879 0.23054 1.09254 5.12889 29.3044 -0.793771 -21.9656 0.0 0.0 -0.0 0.0 -0.0 58.897 23.2206 -9.1126 -43.6777 0.717164 -6.5053 -19.5075 -28.5716 -3.11765 35.0674 -0.0 -0.0 0.0 0.0 0.0 
2763.49867241 676.587 -1872.0723456 -14.0447924095 25.8463020798 1.18995808933 4.40312 0.00520699 1.49482 4.40436 -0.0899118 1.49212 4.40116 -0.289905 1.46645 4.39816 -0.0546949 1.49382 -9.91813 16.5121 5.08939 -10.1138 27.7133 9.14444 -0.0 0.0 -0.0 1.7315 15.3656 4.56433 2.5504 -34.3739 58.0161 1.65922 -39.4146 0.59436 -42.3947 -3.20937 4.2273 -8.1037 19.8718 -45.7248 -0.0 0.0 -0.0 8.00387 12.3197 -15.4363 -20.4137 4.4188 -72.5744 0.430182 12.03 -0.045328 72.0671 2.95763 8.10091 -0.985494 16.9857 13.9236 0.0 0.0 0.0 18.4579 -12.8053 17.4205 -7.58224 0.237121 1.13864 7.45087 29.1195 -1.14454 -20.8035 0.0 0.0 -0.0 0.0 -0.0 59.1055 25.6135 -10.2103 -40.2492 0.482694 -6.03312 -24.1978 -28.8807 -3.87933 33.4969 -0.0 -0.0 0.0 0.0 0.0 
2763.78934177 676.587 -1872.66401791 -14.0351719176 25.7667435045 1.16785896881 4.40312 0.00520699 1.49482 4.40436 -0.0899118 1.49212 4.40116 -0.289905 1.46645 4.39816 -0.0546949 1.49382 -9.91813 16.5121 5.08939 -10.1138 27.7133 9.14444 -0.0 0.0 -0.0 1.7315 15.3656 4.56433 2.5504 -34.3739 58.0161 1.65922 -39.4146 0.59436 -42.3947 -3.20937 4.2273 -8.1037 19.8718 -45.7248 -0.0 0.0 -0.0 8.00387 12.3197 -15.4363 -20.4137 4.4188 -72.5744 0.430182 12.03 -0.045328 72.0671 2.95763 8.10091 -0.985494 16.9857 13.9236 0.0 0.0 0.0 18.4579 -12.8053 17.4205 -7.58224 0.237121 1.13864 7.45087 29.1195 -1.14454 -20.8035 0.0 0.0 -0.0 0.0 -0.0 59.1055 25.6135 -10.2103 -40.2492 0.482694 -6.03312 -24.1978 -28.8807 -3.87933 33.4969 -0.0 -0.0 0.0 0.0 0.0 
2715.89183086 673.971 -1893.276024 -14.0994523177 27.5486402887 1.32652013366 4.1369 0.272395 1.33271 4.13786 0.187047 1.34734 4.14167 -0.00205533 1.36025 4.13915 0.212778 1.34351 -13.014 16.7704 4.61006 -13.5556 29.0812 9.61166 -0.0 0.0 -0.0 3.05399 15.0171 6.66527 1.47139 -32.4137 57.6944 1.80924 -41.8641 0.692088 -58.8245 -5.13693 5.06308 -8.77092 24.3643 -45.9989 -0.0 0.0 -0.0 8.0367 16.5433 -15.2888 -22.4309 2.47334 -75.5785 0.374833 10.5191 -0.0345056 71.9725 2.94758 8.09412 0.120014 21.9735 8.54064 0.0 0.0 0.0 15.7802 -5.82615 16.9022 -8.9953 0.264544 1.35374 12.879 27.8351 -1.92945 -19.5205 0.0 0.0 -0.0 0.0 -0.0 53.768 24.8199 -8.10663 -20.7336 -0.286196 -3.15153 -20.506 -17.0702 -3.11645 10.4375 -0.0 -0.0 0.0 0.0 0.0 
